<?xml version="1.0" standalone="no"?>
<!DOCTYPE svg PUBLIC "-//W3C//DTD SVG 20010904//EN"
 "http://www.w3.org/TR/2001/REC-SVG-20010904/DTD/svg10.dtd">
<svg version="1.0" xmlns="http://www.w3.org/2000/svg"
 width="500.000000pt" height="500.000000pt" viewBox="0 0 500.000000 500.000000"
 preserveAspectRatio="xMidYMid meet">

<g transform="translate(0.000000,500.000000) scale(0.100000,-0.100000)"
fill="#000000" stroke="none">
<path d="M2362 3898 c-259 -519 -503 -1001 -541 -1072 -39 -70 -71 -130 -71
-132 0 -2 61 -4 135 -4 95 0 137 4 145 13 6 6 29 44 50 82 38 71 38 71 107 93
107 33 149 43 241 52 100 11 160 1 237 -36 80 -39 83 -46 33 -80 -77 -51 -211
-156 -313 -245 -96 -84 -348 -335 -450 -449 -267 -297 -369 -387 -475 -415
-61 -17 -124 -9 -214 27 l-49 19 81 -86 c140 -148 212 -264 252 -406 11 -40
20 -75 20 -76 0 -19 -130 60 -370 226 l-75 52 60 -55 c133 -123 389 -289 610
-396 201 -97 507 -220 617 -249 287 -76 526 -72 777 11 169 56 395 184 556
315 l60 49 3 76 c4 103 -21 257 -60 375 -28 85 -154 353 -177 376 -5 5 7 -54
25 -130 64 -261 69 -477 13 -618 -29 -71 -78 -113 -214 -178 -111 -54 -130
-61 -230 -87 -348 -87 -716 11 -957 257 -108 109 -147 171 -183 287 -23 77
-17 224 14 311 60 167 186 356 365 543 114 120 427 372 462 372 39 0 206 -51
376 -114 96 -36 209 -71 253 -78 l78 -13 30 -70 c16 -38 56 -131 89 -205 171
-381 269 -637 288 -747 17 -105 0 -204 -53 -313 -54 -109 -53 -108 -31 -89 43
35 215 139 304 182 211 104 442 137 626 91 29 -7 29 -3 4 69 -31 88 -25 227
15 321 8 18 7 18 -17 2 -42 -27 -113 -35 -184 -20 -165 34 -295 160 -438 424
-32 58 -186 364 -343 680 -385 777 -758 1522 -792 1584 -16 28 -70 133 -121
234 -51 100 -93 182 -95 182 -1 0 -214 -424 -473 -942z m501 199 c31 -67 99
-210 151 -317 170 -355 346 -763 334 -775 -3 -3 -115 42 -249 100 -134 58
-250 105 -256 105 -7 0 -142 -64 -300 -141 -311 -153 -374 -182 -380 -175 -2
2 47 106 109 232 169 341 398 819 473 987 26 59 50 107 54 106 3 0 32 -55 64
-122z"/>
</g>
</svg>
